<svg xmlns="http://www.w3.org/2000/svg" width="256" height="256" viewBox="0 0 24 24" fill="none" stroke-linecap="round" stroke-linejoin="round">
  <!-- Lucide "braces", gold. Drawn a touch smaller than the other glyphs so it
       reads as a lighter modifier next to the fork badge. Macro indicator. -->
  <g transform="translate(2.4 2.4) scale(0.8)" stroke="#d4af37" stroke-width="2.4">
    <path d="M8 3H7a2 2 0 0 0-2 2v5a2 2 0 0 1-2 2 2 2 0 0 1 2 2v5c0 1.1.9 2 2 2h1"/>
    <path d="M16 21h1a2 2 0 0 0 2-2v-5c0-1.1.9-2 2-2a2 2 0 0 1-2-2V5a2 2 0 0 0-2-2h-1"/>
  </g>
</svg>
